<?xml version="1.0" encoding="UTF-8"?>
<svg version="1.1" xmlns="http://www.w3.org/2000/svg" width="473" height="294">
<path d="M0 0 C156.09 0 312.18 0 473 0 C473 97.02 473 194.04 473 294 C316.91 294 160.82 294 0 294 C0 196.98 0 99.96 0 0 Z " fill="#202A9C" transform="translate(0,0)"/>
<path d="M0 0 C156.09 0 312.18 0 473 0 C473 97.02 473 194.04 473 294 C316.91 294 160.82 294 0 294 C0 196.98 0 99.96 0 0 Z M21 20 C21 105.47 21 190.94 21 279 C164.88 279 308.76 279 457 279 C457 193.53 457 108.06 457 20 C313.12 20 169.24 20 21 20 Z " fill="#E0E9F8" transform="translate(0,0)"/>
<path d="M0 0 C0.72525879 0.11827148 1.45051758 0.23654297 2.19775391 0.35839844 C16.88343495 2.75369732 32.62643061 6.31321531 46 13 C45.4133247 16.75063565 44.35059992 19.559276 42.49609375 22.86328125 C42.00302734 23.74951172 41.50996094 24.63574219 41.00195312 25.54882812 C40.22754883 26.9168457 40.22754883 26.9168457 39.4375 28.3125 C38.91736328 29.24384766 38.39722656 30.17519531 37.86132812 31.13476562 C36.58023026 33.42663795 35.29297895 35.71481613 34 38 C28.88321345 37.33611314 24.33543745 35.83092537 19.5 34.125 C3.95352973 28.79782119 -11.15625873 26.80235058 -27.54614258 26.75976562 C-29.79741454 26.750065 -32.04776938 26.71895928 -34.29882812 26.6875 C-46.68972876 26.59624307 -58.34042684 28.10140684 -69 35 C-72.17807226 38.17807226 -72.23409063 41.16447465 -72.4375 45.5 C-72.31449098 48.89413764 -72.07804593 50.83326551 -70.625 53.9375 C-63.60463667 59.45349976 -55.9502511 60.62206127 -47.25 60.375 C-46.28771484 60.36138428 -45.32542969 60.34776855 -44.33398438 60.33374023 C-37.92670163 60.19246631 -31.75691883 59.6252831 -25.43969727 58.53369141 C-14.8324849 56.88791341 -4.02593266 56.79541996 6.6875 56.75 C7.91533203 56.729375 9.14316406 56.70875 10.40820312 56.6875 C18.10497343 56.65469544 24.7071679 57.54692138 32 60 C32.74145264 60.23315918 33.48290527 60.46631836 34.24682617 60.70654297 C44.88450678 64.13858811 53.01862896 71.62980634 58.875 81 C63.3463859 92.92369573 63.71414881 105.98532016 58.84765625 117.796875 C51.67650657 133.45024327 40.3130515 141.329312 24.8125 147.6875 C9.49365631 153.06311277 -4.56216894 155.87639124 -20.8125 155.625 C-21.69442017 155.61824249 -22.57634033 155.61148499 -23.48498535 155.60452271 C-51.73474039 155.352735 -78.03434035 150.11615805 -103.75 138.25 C-104.56750732 137.87327148 -105.38501465 137.49654297 -106.22729492 137.10839844 C-106.97213135 136.7477832 -107.71696777 136.38716797 -108.484375 136.015625 C-109.14147461 135.69883789 -109.79857422 135.38205078 -110.47558594 135.05566406 C-112 134 -112 134 -113 131 C-112.16723633 129.1940918 -112.16723633 129.1940918 -110.83203125 127.19921875 C-110.10983398 126.10383789 -110.10983398 126.10383789 -109.37304688 124.98632812 C-108.85806641 124.22771484 -108.34308594 123.46910156 -107.8125 122.6875 C-107.31685547 121.94048828 -106.82121094 121.19347656 -106.31054688 120.42382812 C-104.8831077 118.27606958 -103.44285072 116.13742402 -102 114 C-101.21133797 112.81961232 -100.42345779 111.63870149 -99.63671875 110.45703125 C-98.82654297 109.24080078 -98.82654297 109.24080078 -98 108 C-94.54013717 108.76949173 -91.59517276 110.10694551 -88.41723633 111.67895508 C-75.09070694 118.26490579 -61.6198273 122.24479109 -47 125 C-46.06027344 125.20625 -45.12054688 125.4125 -44.15234375 125.625 C-23.90443131 129.54922529 2.92408209 129.73031112 20.9921875 118.515625 C24.63311781 115.76721846 26.56752922 113.29741233 28 109 C28.38795258 104.18043527 28.61826941 99.61437011 26.875 95.0625 C21.23297895 88.85627684 14.61230721 87.43137517 6.52563477 86.80981445 C4.03438629 86.73240915 1.55477434 86.72307839 -0.9375 86.75 C-1.83122314 86.75459229 -2.72494629 86.75918457 -3.64575195 86.76391602 C-18.7232139 86.45872248 -18.7232139 86.45872248 -33 90 C-51.76924621 92.30001353 -73.33819153 92.68138992 -89.375 81.125 C-90.6041794 80.10801578 -91.81327492 79.06621878 -93 78 C-93.92232422 77.19755859 -93.92232422 77.19755859 -94.86328125 76.37890625 C-101.48239829 70.24169495 -105.73895498 63.11045827 -106.203125 54.0234375 C-106.46919515 38.38087032 -103.78870115 28.05977786 -92.875 16.375 C-69.83213033 -5.81443005 -29.44809593 -5.39933477 0 0 Z " fill="#DEE7F7" transform="translate(234,48)"/>
<path d="M0 0 C9.9 0 19.8 0 30 0 C30.09056043 19.02047727 30.16413262 38.04077792 30.20724869 57.06141663 C30.22780711 65.89453899 30.25579792 74.72751713 30.30175781 83.56054688 C30.34183274 91.26626789 30.36748154 98.97188437 30.37635398 106.67770672 C30.38153407 110.75171044 30.39356587 114.82541531 30.42292023 118.89932251 C30.45041736 122.74727887 30.45837723 126.59481818 30.45243073 130.44286346 C30.45351587 131.84231598 30.46126322 133.24178498 30.4768219 134.64115143 C30.67583613 153.49283651 25.7939648 171.86833864 12.375 185.6953125 C11.59125 186.45585937 10.8075 187.21640625 10 188 C9.21625 188.78117188 8.4325 189.56234375 7.625 190.3671875 C-6.69633838 204 -6.69633838 204 -15 204 C-16.87003926 200.06984608 -18.7182591 196.12981764 -20.5625 192.1875 C-21.09552734 191.06794922 -21.62855469 189.94839844 -22.17773438 188.79492188 C-22.67724609 187.72177734 -23.17675781 186.64863281 -23.69140625 185.54296875 C-24.15748291 184.55321045 -24.62355957 183.56345215 -25.10375977 182.54370117 C-26 180 -26 180 -25 177 C-23.33782218 175.72892285 -21.61969677 174.53020794 -19.875 173.375 C-10.68798723 166.82984842 -5.22000874 158.85755014 -2 148 C-0.91834974 140.40046952 -0.82949786 132.88615363 -0.79467773 125.21850586 C-0.78508035 123.84773476 -0.77506924 122.4769665 -0.76467896 121.10620117 C-0.73782507 117.41058933 -0.71671086 113.71496497 -0.69667697 110.01931071 C-0.67469588 106.14758109 -0.64736693 102.27588917 -0.62062073 98.40419006 C-0.57085677 91.08403006 -0.52585801 83.76384894 -0.48259836 76.44364792 C-0.43308603 68.1049998 -0.37822014 59.76638955 -0.32291877 51.42777812 C-0.20934914 34.28521917 -0.10316292 17.14262522 0 0 Z " fill="#E0E9F8" transform="translate(327,48)"/>
<path d="M0 0 C156.09 0 312.18 0 473 0 C473 0.66 473 1.32 473 2 C317.9 2 162.8 2 3 2 C3 98.36 3 194.72 3 294 C2.01 294 1.02 294 0 294 C0 196.98 0 99.96 0 0 Z " fill="#3D47AA" transform="translate(0,0)"/>
</svg>
